# xmcd
#
# Track frame offsets: 
#        150
#        12894
#        21500
#        32792
#        42448
#        58558
#        69267
#        79391
#        90129
#
# Disc length: 1375 seconds
#
# Revision: 0
# Processed by: cddbd v1.5.2PL0 Copyright (c) Steve Scherf et al.
# Submitted via: ExactAudioCopy v1.3
#
DISCID=68055d09
DTITLE=Johnny Horton - The Legendary Johnny Horton
DYEAR=1970
DGENRE=Country
TTITLE0=North To Alaska
TTITLE1=All Grown Up
TTITLE2=Words
TTITLE3=Counterfeit Love
TTITLE4=Miss Mercy
TTITLE5=Take Me Like I Am
TTITLE6=Honky Tonk Mind (The Woman I Need)
TTITLE7=I'll Do It Everytime
TTITLE8=I Just Don't Like This Kind Of Livin'
EXTD=
EXTT0=
EXTT1=
EXTT2=
EXTT3=
EXTT4=
EXTT5=
EXTT6=
EXTT7=
EXTT8=
PLAYORDER=
